<svg width="17" height="17" fill="none" xmlns="http://www.w3.org/2000/svg"><path d="M8.5 1.063c-4.1 0-7.438 3.336-7.438 7.437 0 4.1 3.337 7.438 7.438 7.438 4.1 0 7.438-3.337 7.438-7.438 0-4.1-3.337-7.438-7.438-7.438zM8.5 0a8.5 8.5 0 110 17 8.5 8.5 0 010-17zM3.761 11.342l.048-.145c.112-.334.481-.683.822-.776l1.256-.344c.34-.092.826.032 1.076.282l.455.455a4.827 4.827 0 003.394-3.395l-.455-.455c-.249-.249-.373-.734-.28-1.076l.341-1.256c.093-.34.444-.71.778-.822l.143-.048c.335-.112.813.001 1.062.251l.681.681c.121.12.2.466.2.467a8.041 8.041 0 01-2.352 5.77 8.033 8.033 0 01-5.75 2.35c-.01 0-.367-.077-.488-.198l-.68-.68c-.25-.249-.362-.727-.25-1.061z" fill="#877BFB"/></svg>