<svg width="28" height="28" viewBox="0 0 28 28" fill="none" xmlns="http://www.w3.org/2000/svg">
<g clip-path="url(#clip0_1_27975)">
<path d="M15.8046 28.0547C14.655 28.0547 13.5054 28.0547 12.345 28.0343C12.0591 27.9548 11.7864 27.8815 11.5089 27.8391C10.2684 27.6494 9.09885 27.2384 7.97176 26.7024C6.87121 26.179 5.85817 25.5183 4.94033 24.7126C4.20589 24.0679 3.5014 23.3939 2.9354 22.5934C2.50923 21.9906 2.07739 21.3869 1.7147 20.7458C1.41923 20.2236 1.22249 19.6455 0.997314 19.0773C1.16086 19.0339 1.30903 18.9804 1.45727 18.9802C5.11626 18.9756 8.77526 18.9769 12.4343 18.9762C13.0167 18.9761 13.5992 18.971 14.1994 18.9728C14.9765 19.491 15.7331 20.0088 16.4968 20.5159C16.7377 20.6759 16.986 20.8345 17.2509 20.9467C18.0246 21.2746 18.5637 21.0181 18.8024 20.214C18.907 19.8616 18.9726 19.4977 19.0834 19.1393C21.7792 19.1399 24.4475 19.1401 27.1194 19.1608C26.8333 19.7806 26.5583 20.3875 26.2506 20.9775C25.7907 21.8592 25.2124 22.669 24.5299 23.3852C23.9026 24.0435 23.2285 24.6667 22.5182 25.2344C21.4216 26.1107 20.192 26.7707 18.8632 27.2371C17.8965 27.5764 16.9171 27.8607 15.8903 27.9507C15.8589 27.9534 15.833 28.0186 15.8046 28.0547Z" fill="#24A2DF"/>
<path d="M12.3048 0.0546875C13.4544 0.0546876 14.6039 0.0546876 15.761 0.0735142C15.8237 0.116097 15.877 0.152086 15.9346 0.161634C16.321 0.225698 16.7143 0.259191 17.0944 0.348899C18.4468 0.668042 19.742 1.13692 20.9533 1.83233C21.8457 2.34463 22.6902 2.9237 23.4373 3.62657C23.9891 4.14576 24.4974 4.71443 24.9948 5.28738C25.6307 6.01983 26.135 6.84406 26.5468 7.70879C26.3439 7.6899 26.1635 7.65841 25.983 7.65836C18.0338 7.65592 10.0846 7.65661 2.13536 7.65396C1.95528 7.6539 1.77521 7.61972 1.59717 7.58226C1.68494 7.41845 1.77553 7.27647 1.8556 7.12879C2.32893 6.25589 2.91019 5.45646 3.57372 4.72353C4.01063 4.24092 4.49919 3.80333 4.98099 3.36352C5.7275 2.68206 6.5698 2.12829 7.45949 1.6594C8.94603 0.875956 10.52 0.345388 12.1998 0.159301C12.2382 0.155047 12.2699 0.0908981 12.3048 0.0546875Z" fill="#29AAEC"/>
<path d="M1.59503 7.60144C1.77511 7.6197 1.95518 7.65389 2.13526 7.65395C10.0845 7.6566 18.0337 7.6559 25.9829 7.65834C26.1634 7.6584 26.3438 7.68988 26.5554 7.72669C26.6694 7.92202 26.7536 8.09677 26.835 8.27281C27.4131 9.52333 27.7809 10.8333 27.9497 12.2003C27.9545 12.2388 28.0184 12.27 28.0547 12.3047C28.0547 12.7251 28.0547 13.1455 28.0291 13.5915C25.3368 13.617 22.6702 13.6169 20.0022 13.593C20.106 12.849 20.2186 12.1297 20.314 11.4081C20.4045 10.7227 20.5006 10.0366 20.5496 9.34761C20.5879 8.80855 20.3777 8.56715 19.8882 8.49286C19.757 8.47294 19.6077 8.47774 19.4835 8.52037C18.5788 8.83108 17.6647 9.12074 16.7794 9.4806C14.9074 10.2415 13.0514 11.0417 11.1884 11.8246C10.6528 12.0496 10.1155 12.2705 9.56104 12.4779C9.41886 12.4463 9.29463 12.4162 9.17036 12.4161C6.1318 12.4135 3.09325 12.414 0.0546875 12.414C0.0546875 12.373 0.0546875 12.332 0.0731932 12.2887C0.115107 12.2496 0.152636 12.2153 0.1597 12.1755C0.218872 11.8423 0.26383 11.5064 0.329247 11.1745C0.576148 9.92195 0.997979 8.73044 1.59503 7.60144Z" fill="#28A7E8"/>
<path d="M0.0546875 12.4397C3.09325 12.414 6.1318 12.4135 9.17036 12.4161C9.29463 12.4162 9.41886 12.4463 9.5477 12.4916C8.67613 12.9007 7.79782 13.2758 6.92473 13.6626C6.48563 13.8572 6.04446 14.0529 5.62842 14.2905C5.48376 14.3731 5.32311 14.5879 5.33092 14.7337C5.3393 14.8899 5.53224 15.0405 5.65621 15.1836C5.69237 15.2253 5.76701 15.2362 5.8259 15.2554C6.54603 15.4901 7.26328 15.7344 7.9885 15.9523C8.27558 16.0385 8.57864 16.0918 8.8778 16.1134C9.55009 16.1619 10.1073 15.8574 10.6465 15.4973C12.5015 14.2581 14.3613 13.0261 16.2204 11.7929C16.3031 11.738 16.3926 11.6699 16.4848 11.6595C16.58 11.6487 16.7252 11.6708 16.7695 11.7339C16.814 11.7972 16.7922 11.9483 16.7438 12.0265C16.659 12.1637 16.539 12.2824 16.4209 12.3954C15.3152 13.4537 14.2046 14.5068 13.1006 15.5669C12.7724 15.882 12.4421 16.1984 12.1468 16.5433C11.8419 16.8996 11.8651 17.2077 12.1917 17.5354C12.3572 17.7017 12.5518 17.8418 12.7445 17.9776C13.2201 18.3128 13.7022 18.6387 14.1817 18.9683C13.5993 18.971 13.0168 18.9761 12.4344 18.9762C8.77535 18.9769 5.11635 18.9755 1.45735 18.9802C1.30912 18.9804 1.16095 19.0338 0.979596 19.0673C0.573185 18.0565 0.272955 17.0227 0.159873 15.9412C0.154787 15.8926 0.091087 15.85 0.0546876 15.8047C0.0546875 14.6915 0.0546875 13.5784 0.0546875 12.4397Z" fill="#27A5E4"/>
<path d="M20.0035 13.6168C22.6701 13.617 25.3367 13.6171 28.029 13.6172C28.0546 14.3293 28.0546 15.0414 28.0347 15.7631C27.9922 15.8098 27.9565 15.8445 27.9493 15.8843C27.8543 16.4082 27.7957 16.9411 27.6629 17.455C27.5153 18.0258 27.301 18.5793 27.1158 19.1404C24.4475 19.1401 21.7793 19.1399 19.0846 19.1154C19.2171 18.1784 19.377 17.266 19.5347 16.3531C19.6921 15.4412 19.8473 14.5289 20.0035 13.6168Z" fill="#26A5E3"/>
<path d="M20.0023 13.593C19.8474 14.5289 19.6922 15.4412 19.5347 16.3531C19.3771 17.2659 19.2172 18.1784 19.0572 19.115C18.9727 19.4977 18.9072 19.8616 18.8026 20.214C18.5638 21.018 18.0247 21.2745 17.251 20.9467C16.9861 20.8345 16.7378 20.6759 16.4969 20.5159C15.7333 20.0088 14.9767 19.4909 14.1996 18.9728C13.7023 18.6387 13.2202 18.3128 12.7446 17.9776C12.5518 17.8418 12.3573 17.7017 12.1917 17.5355C11.8652 17.2077 11.8419 16.8996 12.1469 16.5434C12.4421 16.1984 12.7725 15.882 13.1006 15.5669C14.2046 14.5068 15.3153 13.4537 16.4209 12.3954C16.539 12.2824 16.659 12.1637 16.7439 12.0265C16.7923 11.9483 16.814 11.7972 16.7696 11.7339C16.7252 11.6708 16.58 11.6487 16.4848 11.6595C16.3927 11.6699 16.3031 11.738 16.2204 11.7929C14.3614 13.0261 12.5016 14.2581 10.6465 15.4973C10.1073 15.8574 9.55013 16.1619 8.87783 16.1134C8.57868 16.0918 8.27562 16.0385 7.98854 15.9523C7.26332 15.7344 6.54607 15.4901 5.82594 15.2554C5.76705 15.2362 5.69241 15.2253 5.65625 15.1836C5.53228 15.0405 5.33934 14.8899 5.33096 14.7337C5.32315 14.5879 5.4838 14.3731 5.62845 14.2905C6.0445 14.0529 6.48567 13.8572 6.92477 13.6626C7.79786 13.2758 8.67617 12.9007 9.56566 12.5071C10.1155 12.2705 10.6528 12.0496 11.1884 11.8245C13.0515 11.0417 14.9074 10.2415 16.7794 9.4806C17.6647 9.12074 18.5788 8.83108 19.4836 8.52037C19.6077 8.47774 19.757 8.47294 19.8882 8.49286C20.3777 8.56715 20.5879 8.80855 20.5496 9.3476C20.5007 10.0366 20.4045 10.7227 20.314 11.4081C20.2187 12.1297 20.106 12.849 20.0023 13.593Z" fill="#FEFFFF"/>
</g>
<defs>
<clipPath id="clip0_1_27975">
<rect width="28" height="28" fill="white"/>
</clipPath>
</defs>
</svg>
