<svg width="28" height="28" viewBox="0 0 28 28" fill="none" xmlns="http://www.w3.org/2000/svg">
<g clip-path="url(#clip0_1_27968)">
<path d="M12.8516 0.0546875C13.6366 0.0546876 14.4216 0.0546876 15.2435 0.0751206C15.7153 0.15391 16.1509 0.207851 16.585 0.271455C17.8591 0.458118 19.0607 0.880891 20.2121 1.44067C21.3031 1.9711 22.308 2.63598 23.2214 3.44328C24.0914 4.21225 24.8779 5.0513 25.5483 5.99866C26.2386 6.97398 26.7948 8.02348 27.207 9.14262C27.5683 10.1234 27.837 11.1319 27.9476 12.177C27.9715 12.4031 28.0184 12.6268 28.0547 12.8516C28.0547 13.6366 28.0547 14.4216 28.0343 15.2435C27.9555 15.7153 27.9015 16.1509 27.8379 16.585C27.6513 17.8591 27.2285 19.0607 26.6687 20.2121C26.1383 21.3031 25.4734 22.308 24.6661 23.2214C23.8971 24.0914 23.0581 24.8779 22.1107 25.5483C21.1354 26.2386 20.0859 26.7948 18.9667 27.207C17.9859 27.5683 16.9774 27.837 15.9324 27.9476C15.7063 27.9715 15.4826 28.0184 15.2578 28.0547C14.4728 28.0547 13.6878 28.0547 12.8659 28.0343C12.3941 27.9555 11.9585 27.9015 11.5244 27.8379C10.2502 27.6513 9.04865 27.2285 7.8973 26.6687C6.8063 26.1383 5.80138 25.4734 4.88802 24.6661C4.01802 23.8971 3.23152 23.0581 2.56106 22.1107C1.87081 21.1354 1.31457 20.0859 0.902343 18.9668C0.541077 17.9859 0.272346 16.9774 0.161809 15.9324C0.137895 15.7063 0.0909982 15.4826 0.0546875 15.2578C0.0546875 14.4728 0.0546875 13.6878 0.0751204 12.8659C0.15391 12.3941 0.20785 11.9585 0.271454 11.5244C0.458121 10.2502 0.880888 9.04864 1.44067 7.89729C1.9711 6.8063 2.63598 5.80138 3.44328 4.88801C4.21225 4.01802 5.0513 3.23152 5.99866 2.56106C6.97398 1.87081 8.02348 1.31456 9.14263 0.902341C10.1234 0.541079 11.1319 0.272346 12.177 0.161809C12.4031 0.137895 12.6268 0.0909981 12.8516 0.0546875ZM11.746 11.9153C11.7533 12.3162 11.7865 12.7186 11.761 13.1174C11.7311 13.5867 11.6844 14.0604 11.5813 14.5178C11.4904 14.9213 11.1812 15.006 10.8576 14.743C10.6621 14.584 10.4844 14.3919 10.3368 14.1872C9.58346 13.1419 8.95062 12.027 8.47209 10.829C8.30145 10.4018 8.0079 10.2074 7.5477 10.2166C6.79147 10.2318 6.0348 10.2231 5.27838 10.231C5.13407 10.2324 4.98622 10.2487 4.84676 10.2845C4.5785 10.3533 4.48415 10.5091 4.55702 10.7745C4.60241 10.9398 4.67971 11.0973 4.75181 11.2542C5.76601 13.4602 6.90465 15.5938 8.42509 17.5017C10.0103 19.491 12.0716 20.3915 14.6108 20.1885C15.0288 20.1551 15.234 19.9515 15.2685 19.5328C15.2841 19.3421 15.2748 19.144 15.3253 18.9628C15.4144 18.6432 15.5049 18.3145 15.6617 18.026C15.8092 17.7546 16.0531 17.7135 16.3182 17.8704C16.5189 17.9892 16.709 18.1387 16.8722 18.3055C17.2543 18.6962 17.6082 19.1144 17.9904 19.505C18.4763 20.0015 19.0535 20.2746 19.7739 20.2361C20.5015 20.1972 21.2318 20.2104 21.9605 20.188C22.1392 20.1825 22.3252 20.1515 22.4924 20.0902C22.8978 19.9416 23.0254 19.6476 22.826 19.2671C22.6665 18.963 22.4842 18.6574 22.2532 18.4067C21.6241 17.7238 20.9589 17.0742 20.3174 16.4025C19.7873 15.8474 19.7641 15.6169 20.199 14.9968C20.5649 14.475 20.9782 13.9861 21.3366 13.4594C21.8224 12.7456 22.3213 12.0342 22.7301 11.2763C23.1369 10.5221 22.9105 10.2182 22.0604 10.2249C21.1399 10.232 20.2194 10.2377 19.2989 10.2438C18.7718 10.2473 18.7044 10.3195 18.4756 10.7906C18.0547 11.6569 17.6405 12.5304 17.1507 13.3579C16.8539 13.8594 16.4446 14.3032 16.0393 14.7285C15.7991 14.9806 15.5734 14.9017 15.4076 14.5891C15.3615 14.5019 15.3178 14.4042 15.3092 14.3082C15.2818 14.0006 15.2546 13.6914 15.2576 13.3831C15.2657 12.5448 15.3033 11.7067 15.3026 10.8685C15.3021 10.1863 15.0914 9.94276 14.424 9.84336C13.4543 9.69893 12.4799 9.70614 11.5115 9.85532C11.1383 9.91282 10.7985 10.0646 10.6229 10.4687C10.7089 10.4979 10.7742 10.5264 10.8424 10.5422C11.3202 10.653 11.6059 10.9424 11.6785 11.4328C11.6998 11.5769 11.7211 11.721 11.746 11.9153Z" fill="#4D76A1"/>
<path d="M11.7442 11.8902C11.721 11.721 11.6997 11.5769 11.6784 11.4328C11.6058 10.9424 11.3201 10.6531 10.8423 10.5422C10.7741 10.5264 10.7088 10.4979 10.6228 10.4687C10.7985 10.0647 11.1382 9.91284 11.5114 9.85534C12.4798 9.70616 13.4543 9.69894 14.4239 9.84337C15.0913 9.94278 15.302 10.1863 15.3025 10.8685C15.3032 11.7067 15.2657 12.5449 15.2575 13.3832C15.2545 13.6914 15.2817 14.0006 15.3091 14.3082C15.3177 14.4043 15.3614 14.502 15.4076 14.5891C15.5733 14.9017 15.799 14.9806 16.0392 14.7285C16.4445 14.3032 16.8538 13.8594 17.1507 13.3579C17.6404 12.5304 18.0547 11.6569 18.4755 10.7906C18.7043 10.3196 18.7717 10.2473 19.2988 10.2438C20.2193 10.2377 21.1398 10.2321 22.0603 10.2249C22.9104 10.2182 23.1368 10.5221 22.73 11.2763C22.3212 12.0343 21.8223 12.7456 21.3365 13.4595C20.9782 13.9861 20.5649 14.475 20.1989 14.9968C19.764 15.617 19.7872 15.8474 20.3173 16.4025C20.9588 17.0743 21.624 17.7238 22.2532 18.4067C22.4841 18.6575 22.6665 18.963 22.8259 19.2672C23.0253 19.6476 22.8977 19.9416 22.4923 20.0902C22.3251 20.1515 22.1391 20.1825 21.9604 20.188C21.2317 20.2104 20.5014 20.1972 19.7738 20.2361C19.0534 20.2746 18.4762 20.0016 17.9903 19.505C17.6081 19.1144 17.2542 18.6962 16.8721 18.3055C16.709 18.1387 16.5188 17.9892 16.3181 17.8704C16.053 17.7135 15.8091 17.7546 15.6616 18.0261C15.5048 18.3146 15.4143 18.6432 15.3253 18.9628C15.2748 19.1441 15.2841 19.3422 15.2684 19.5328C15.2339 19.9515 15.0287 20.1552 14.6108 20.1886C12.0715 20.3915 10.0103 19.491 8.42502 17.5018C6.90458 15.5938 5.76594 13.4602 4.75174 11.2542C4.67964 11.0974 4.60234 10.9398 4.55695 10.7745C4.48408 10.5091 4.57843 10.3533 4.84669 10.2845C4.98615 10.2487 5.134 10.2325 5.27831 10.231C6.03473 10.2231 6.7914 10.2318 7.54763 10.2166C8.00783 10.2074 8.30138 10.4019 8.47202 10.829C8.95055 12.027 9.58339 13.1419 10.3368 14.1872C10.4843 14.3919 10.662 14.584 10.8575 14.743C11.1811 15.0061 11.4903 14.9213 11.5813 14.5178C11.6843 14.0604 11.731 13.5867 11.7609 13.1174C11.7864 12.7187 11.7532 12.3162 11.7442 11.8902Z" fill="#FEFEFF"/>
</g>
<defs>
<clipPath id="clip0_1_27968">
<rect width="28" height="28" fill="white"/>
</clipPath>
</defs>
</svg>
