<svg width="193" height="193" viewBox="0 0 193 193" fill="none" xmlns="http://www.w3.org/2000/svg">
<g clip-path="url(#clip0_1_65)">
<path d="M96.5 193C86.8881 193 77.4124 191.584 68.3178 188.807C64.5874 187.663 62.4636 183.715 63.6072 179.957C64.7508 176.227 68.699 174.103 72.4567 175.247C80.217 177.616 88.304 178.814 96.5272 178.814C111.013 178.814 125.254 175.002 137.725 167.786C141.101 165.825 145.431 166.969 147.391 170.373C149.352 173.776 148.208 178.078 144.804 180.039C130.182 188.534 113.491 193 96.5 193Z" fill="#495057"/>
<path d="M51.8443 181.074C50.6462 181.074 49.4209 180.774 48.3045 180.12C25.1597 166.751 8.44104 144.205 2.47786 118.256C1.60653 114.444 3.97547 110.632 7.78754 109.76C11.5996 108.889 15.4117 111.258 16.283 115.07C21.3749 137.207 35.6429 156.431 55.4113 167.84C58.7877 169.801 59.9585 174.13 57.998 177.506C56.6638 179.794 54.2949 181.074 51.8443 181.074Z" fill="#495057"/>
<path d="M157.466 168.984C155.56 168.984 153.681 168.221 152.292 166.724C149.624 163.865 149.787 159.372 152.646 156.731C160.842 149.107 167.269 140.066 171.789 129.883C176.472 119.345 178.841 108.127 178.841 96.4999V96.3365C178.814 92.4155 181.972 89.257 185.893 89.2297H185.92C189.814 89.2297 192.973 92.3883 193 96.2821V96.4999C193 110.114 190.223 123.293 184.722 135.628C179.413 147.555 171.87 158.147 162.286 167.078C160.924 168.358 159.209 168.984 157.466 168.984Z" fill="#212529"/>
<path d="M7.07957 103.688C3.15858 103.688 0 100.53 0 96.6089V96.5C0 82.9127 2.77737 69.761 8.25042 57.399C13.5329 45.4726 21.0481 34.9077 30.6328 25.9766C33.4918 23.3081 37.9574 23.4715 40.6258 26.3033C43.2943 29.1351 43.1309 33.6279 40.2991 36.2964C32.1304 43.9206 25.7043 52.9606 21.2115 63.1171C16.5281 73.6548 14.1591 84.9004 14.1591 96.5V96.6089C14.1591 100.503 11.0006 103.688 7.07957 103.688Z" fill="black"/>
<path d="M183.606 83.321C180.393 83.321 177.479 81.1154 176.717 77.8479C171.598 55.7106 157.303 36.4869 137.534 25.1051C134.158 23.1446 132.987 18.8152 134.92 15.4388C136.881 12.0624 141.21 10.8915 144.587 12.8248C167.759 26.167 184.477 48.6855 190.495 74.6349C191.366 78.4469 188.997 82.259 185.185 83.1303C184.668 83.2665 184.123 83.321 183.606 83.321Z" fill="#212529"/>
<path d="M51.6809 26.1944C49.2302 26.1944 46.8613 24.9419 45.5543 22.6819C43.5938 19.3054 44.7374 14.976 48.1138 13.0155C62.7359 4.49281 79.4818 0 96.5 0C106.057 0 115.506 1.38869 124.6 4.16606C128.331 5.30968 130.455 9.2579 129.311 12.9883C128.167 16.7187 124.219 18.8426 120.489 17.6989C112.756 15.3572 104.696 14.1591 96.5272 14.1591C82.0141 14.1591 67.7188 17.9984 55.2479 25.2414C54.1043 25.8949 52.8789 26.1944 51.6809 26.1944Z" fill="black"/>
<path d="M131.408 65.0776C127.351 77.3852 122.068 89.7472 116.758 89.3932C112.211 89.0937 110.714 79.618 106.82 79.7269C99.6041 79.9447 96.1733 112.919 91.1903 112.729C87.5144 112.592 86.7792 94.6212 81.524 94.1311C76.8678 93.6682 73.7909 107.31 67.3921 107.283C64.288 107.256 61.7284 104.07 59.9585 101.075" stroke="#B4735C" stroke-width="3.60748" stroke-miterlimit="10" stroke-linecap="round"/>
<path d="M133.967 74.1449L131.517 64.887L123.021 69.8154" stroke="#B4735C" stroke-width="3.60748" stroke-miterlimit="10" stroke-linecap="round" stroke-linejoin="round"/>
</g>
<defs>
<clipPath id="clip0_1_65">
<rect width="193" height="193" fill="white"/>
</clipPath>
</defs>
</svg>
