<svg width="15" height="15" viewBox="0 0 15 15" fill="none" xmlns="http://www.w3.org/2000/svg">
<path d="M6.48535 1.16421C6.48535 0.521237 7.00659 0 7.64957 0C8.29254 0 8.81378 0.521236 8.81378 1.16421V12.8063C8.81378 13.4493 8.29254 13.9706 7.64957 13.9706C7.00659 13.9706 6.48535 13.4493 6.48535 12.8063V1.16421Z" fill="#3A3A3A"/>
<path d="M12.2479 6.6443C12.7026 6.18964 13.4397 6.18965 13.8944 6.6443C14.349 7.09895 14.349 7.83609 13.8944 8.29075L8.95505 13.2301C8.5004 13.6847 7.76326 13.6847 7.3086 13.2301C6.85395 12.7754 6.85395 12.0383 7.3086 11.5836L12.2479 6.6443Z" fill="#3A3A3A"/>
<path d="M7.87343 11.384C8.32809 11.8386 8.32809 12.5758 7.87343 13.0304C7.41878 13.4851 6.68164 13.4851 6.22699 13.0304L1.28764 8.09107C0.832991 7.63641 0.832992 6.89927 1.28765 6.44462C1.7423 5.98997 2.47944 5.98997 2.93409 6.44462L7.87343 11.384Z" fill="#3A3A3A"/>
</svg>
