<svg width="18" height="18" viewBox="0 0 18 18" fill="none" xmlns="http://www.w3.org/2000/svg">
<path d="M9.82717 5.80924C9.8931 5.80924 9.9351 5.76301 9.94703 5.69942C10.1329 4.73989 10.1269 4.71676 11.1698 4.52601C11.2358 4.50867 11.2838 4.47399 11.2838 4.40462C11.2838 4.32948 11.2358 4.2948 11.1698 4.28323C10.1269 4.08092 10.1569 4.0578 9.94703 3.10405C9.9351 3.04046 9.8931 3 9.82717 3C9.75525 3 9.71325 3.04046 9.70132 3.10405C9.49147 4.0578 9.52747 4.08092 8.47853 4.28323C8.4126 4.2948 8.3706 4.32948 8.3706 4.40462C8.3706 4.47399 8.4126 4.50867 8.47853 4.52601C9.52747 4.72832 9.50947 4.73989 9.70132 5.69942C9.71325 5.76301 9.75525 5.80924 9.82717 5.80924ZM12.6923 9.71677C12.8002 9.71677 12.8781 9.64162 12.8961 9.53183C13.0879 7.98263 13.1718 7.94797 14.7962 7.69365C14.9221 7.67632 15 7.61272 15 7.49711C15 7.38728 14.9221 7.3237 14.8202 7.30058C13.1838 7 13.0879 7.01156 12.8961 5.46243C12.8781 5.3526 12.8002 5.27746 12.6923 5.27746C12.5844 5.27746 12.5005 5.3526 12.4885 5.45665C12.2847 7.02312 12.2248 7.07515 10.5644 7.30058C10.4625 7.31792 10.3847 7.38728 10.3847 7.49711C10.3847 7.60695 10.4625 7.67632 10.5644 7.69365C12.2248 8.00002 12.2787 8.00002 12.4885 9.54338C12.5005 9.64162 12.5844 9.71677 12.6923 9.71677ZM8.17882 15C10.3426 15 12.0989 13.9595 12.9021 12.1618C12.992 11.9537 12.98 11.7803 12.8721 11.6705C12.7822 11.5896 12.6204 11.5723 12.4345 11.6416C11.9431 11.8324 11.3736 11.9191 10.7203 11.9191C8.01097 11.9191 6.25474 10.2832 6.25474 7.71097C6.25474 7.05781 6.38062 6.32948 6.58441 5.93063C6.69231 5.72254 6.68631 5.54913 6.5964 5.43931C6.49451 5.3237 6.30869 5.30635 6.06893 5.39885C4.22877 6.10405 3 7.95953 3 10.0809C3 12.8902 5.14585 15 8.17882 15Z" fill="white"/>
</svg>
