<svg width="18" height="18" viewBox="0 0 18 18" fill="none" xmlns="http://www.w3.org/2000/svg">
<path d="M9.91906 4.45471C9.99231 4.45471 10.039 4.40334 10.0522 4.33269C10.2587 3.26654 10.2521 3.24084 11.4109 3.02889C11.4841 3.00963 11.5375 2.97109 11.5375 2.89402C11.5375 2.81053 11.4841 2.77199 11.4109 2.75914C10.2521 2.53435 10.2854 2.50866 10.0522 1.44894C10.039 1.37829 9.99231 1.33333 9.91906 1.33333C9.83915 1.33333 9.79248 1.37829 9.77923 1.44894C9.54606 2.50866 9.58606 2.53435 8.42056 2.75914C8.34731 2.77199 8.30065 2.81053 8.30065 2.89402C8.30065 2.97109 8.34731 3.00963 8.42056 3.02889C9.58606 3.25369 9.56606 3.26654 9.77923 4.33269C9.79248 4.40334 9.83915 4.45471 9.91906 4.45471ZM13.1026 8.79641C13.2224 8.79641 13.309 8.71291 13.329 8.59091C13.5421 6.86958 13.6353 6.83108 15.4402 6.54849C15.5801 6.52924 15.6666 6.45858 15.6666 6.33012C15.6666 6.20809 15.5801 6.13744 15.4668 6.11174C13.6486 5.77777 13.5421 5.79062 13.329 4.06936C13.309 3.94733 13.2224 3.86384 13.1026 3.86384C12.9826 3.86384 12.8894 3.94733 12.8761 4.06294C12.6496 5.80346 12.5831 5.86127 10.7382 6.11174C10.625 6.13102 10.5385 6.20809 10.5385 6.33012C10.5385 6.45216 10.625 6.52924 10.7382 6.54849C12.5831 6.88891 12.643 6.88891 12.8761 8.60374C12.8894 8.71291 12.9826 8.79641 13.1026 8.79641ZM8.08756 14.6667C10.4918 14.6667 12.4432 13.5106 13.3356 11.5132C13.4356 11.2819 13.4222 11.0892 13.3023 10.9672C13.2025 10.8773 13.0226 10.8581 12.8161 10.9352C12.2701 11.1471 11.6373 11.2434 10.9114 11.2434C7.90106 11.2434 5.9497 9.42583 5.9497 6.56774C5.9497 5.842 6.08955 5.03275 6.316 4.58959C6.43588 4.35838 6.42921 4.16569 6.32931 4.04367C6.2161 3.91522 6.00964 3.89594 5.74324 3.99871C3.69861 4.78227 2.33331 6.84391 2.33331 9.20099C2.33331 12.3224 4.7176 14.6667 8.08756 14.6667Z" fill="black"/>
</svg>
