<svg width="17" height="17" viewBox="0 0 17 17" fill="none" xmlns="http://www.w3.org/2000/svg">
<circle cx="8.5" cy="8.5" r="8.5" fill="white"/>
<path d="M7.83234 4.45288C7.83234 4.00546 8.19504 3.64276 8.64246 3.64276C9.08987 3.64276 9.45258 4.00546 9.45258 4.45288V12.5541C9.45258 13.0015 9.08987 13.3642 8.64246 13.3642C8.19504 13.3642 7.83234 13.0015 7.83234 12.5541V4.45288Z" fill="#9349F6"/>
<path d="M11.8424 8.26638C12.1588 7.95001 12.6718 7.95001 12.9881 8.26638C13.3045 8.58275 13.3045 9.09569 12.9881 9.41207L9.55108 12.8491C9.23471 13.1655 8.72177 13.1655 8.4054 12.8491C8.08902 12.5327 8.08902 12.0198 8.4054 11.7034L11.8424 8.26638Z" fill="#9349F6"/>
<path d="M8.79837 11.5644C9.11475 11.8807 9.11475 12.3937 8.79837 12.71C8.482 13.0264 7.96906 13.0264 7.65269 12.71L4.21565 9.273C3.89928 8.95663 3.89928 8.44369 4.21565 8.12732C4.53202 7.81095 5.04496 7.81095 5.36133 8.12732L8.79837 11.5644Z" fill="#9349F6"/>
</svg>
