<svg width="13" height="13" viewBox="0 0 13 13" fill="none" xmlns="http://www.w3.org/2000/svg">
<g clip-path="url(#clip0_52_3282)">
<path d="M12.6364 6.39073C12.642 8.72138 11.6754 10.5195 9.72921 11.7782C8.9796 12.263 8.14657 12.5432 7.25758 12.6373C5.3211 12.8423 3.64115 12.2722 2.24445 10.9174C1.3149 10.0156 0.733413 8.91192 0.526849 7.63123C0.195673 5.57795 0.753792 3.78553 2.19736 2.2892C3.09648 1.35724 4.20241 0.777774 5.48311 0.571304C7.54124 0.2395 9.33658 0.800823 10.8337 2.25021C11.7608 3.14784 12.3255 4.25306 12.5438 5.52761C12.5919 5.80849 12.6063 6.09512 12.6364 6.39073ZM8.93295 11.4033C9.49728 11.1225 9.9957 10.7542 10.4421 10.2829C10.0709 10.1459 9.72002 10.0165 9.37305 9.88843C9.25571 10.2803 9.14461 10.652 9.03313 11.0235C8.99578 11.1479 8.95746 11.2721 8.9101 11.3982C8.91217 11.402 8.91425 11.4058 8.91632 11.4096C8.91646 11.4045 8.9166 11.3995 8.93295 11.4033ZM4.13678 1.75534C3.57245 2.03614 3.07403 2.40448 2.62767 2.87578C2.99886 3.01275 3.34972 3.14221 3.69668 3.27024C3.81402 2.87832 3.92512 2.50669 4.03661 2.13517C4.07395 2.01072 4.11227 1.88656 4.15963 1.76042C4.15756 1.75665 4.15549 1.75288 4.15341 1.74911C4.15327 1.75414 4.15313 1.75917 4.13678 1.75534ZM4.14655 11.4026C4.15204 11.4042 4.15753 11.4058 4.16302 11.4074C4.15873 11.4037 4.15443 11.4001 4.15377 11.378C4.00089 10.8872 3.84802 10.3964 3.6901 9.88937C3.34493 10.0178 2.99281 10.1489 2.62737 10.2849C2.99663 10.6716 3.38963 10.9841 3.82896 11.2369C3.9328 11.2967 4.04477 11.3424 4.14655 11.4026ZM8.92318 1.75602C8.91769 1.75444 8.9122 1.75286 8.90671 1.75128C8.91101 1.75493 8.9153 1.75859 8.91596 1.78067C9.06884 2.27149 9.22171 2.7623 9.37963 3.26929C9.7248 3.14082 10.0769 3.00977 10.4424 2.87376C10.0731 2.48702 9.6801 2.17461 9.24077 1.92173C9.13693 1.86196 9.02496 1.81631 8.92318 1.75602ZM11.901 7.04096C11.901 7.00782 11.901 6.97468 11.901 6.94424C11.1793 6.94424 10.4659 6.94424 9.77766 6.94424C9.69804 7.69883 9.61944 8.44366 9.54137 9.18354C9.98858 9.35247 10.4505 9.52697 10.9231 9.7055C11.4831 8.92052 11.8113 8.03693 11.901 7.04096ZM1.76595 9.09287C1.8924 9.30252 2.01884 9.51216 2.13752 9.70892C2.6217 9.52603 3.08598 9.35066 3.52799 9.1837C3.44948 8.43553 3.3714 7.69157 3.29307 6.94515C2.59509 6.94515 1.8794 6.94515 1.1633 6.94515C1.20439 7.67221 1.39076 8.33746 1.76595 9.09287ZM2.65987 6.22162C2.87763 6.22162 3.09539 6.22162 3.29197 6.22162C3.37192 5.46184 3.45059 4.71419 3.52831 3.97555C3.07751 3.80491 2.61612 3.63025 2.14703 3.45268C1.5613 4.27555 1.23175 5.1967 1.16056 6.22162C1.65966 6.22162 2.14784 6.22162 2.65987 6.22162ZM11.8856 6.22072C11.8909 6.18908 11.903 6.1569 11.9005 6.12588C11.841 5.37645 11.6326 4.67034 11.2713 4.01128C11.1635 3.8146 11.0384 3.62739 10.9303 3.45069C10.4469 3.63319 9.98491 3.80758 9.54146 3.97499C9.61998 4.7208 9.69865 5.46806 9.77798 6.22156C10.4641 6.22156 11.1631 6.22156 11.8856 6.22072ZM4.24328 4.20972C4.12327 4.87293 4.05558 5.54115 4.03972 6.21681C4.75642 6.21681 5.46213 6.21681 6.17073 6.21681C6.17073 5.60656 6.17073 5.00113 6.17073 4.39376C5.96316 4.37902 5.76043 4.375 5.56075 4.34828C5.14422 4.29252 4.72938 4.22422 4.31348 4.16355C4.29253 4.16049 4.26817 4.18071 4.24328 4.20972ZM8.23987 6.93706C7.79269 6.93706 7.34551 6.93706 6.90039 6.93706C6.90039 7.55535 6.90039 8.16055 6.90039 8.74002C7.54634 8.82131 8.18142 8.90122 8.84719 8.985C8.91585 8.31819 8.98629 7.63415 9.05807 6.93706C8.77052 6.93706 8.51712 6.93706 8.23987 6.93706ZM6.17714 8.02203C6.17714 7.66222 6.17714 7.30242 6.17714 6.94506C5.45526 6.94506 4.74661 6.94506 4.0386 6.94506C4.05868 7.64294 4.12627 8.32766 4.24956 8.98118C4.89541 8.90035 5.53111 8.82078 6.17714 8.73993C6.17714 8.52094 6.17714 8.2834 6.17714 8.02203ZM8.59754 6.22161C8.74249 6.22161 8.88743 6.22161 9.03143 6.22161C9.01082 5.51442 8.9436 4.83014 8.8201 4.17797C8.1727 4.25878 7.53709 4.33812 6.89982 4.41767C6.89982 5.00678 6.89982 5.61199 6.89982 6.22161C7.4626 6.22161 8.01815 6.22161 8.59754 6.22161ZM7.60704 1.29912C7.3731 1.26371 7.13915 1.2283 6.90094 1.19225C6.90094 2.03193 6.90094 2.85129 6.90094 3.67382C7.49997 3.64838 8.0844 3.57937 8.66273 3.44601C8.65869 3.4177 8.65865 3.39728 8.65273 3.37874C8.47327 2.81736 8.30153 2.25332 8.11023 1.69599C7.99299 1.35444 7.97946 1.35908 7.60704 1.29912ZM4.44762 3.26496C4.43368 3.32477 4.41974 3.38459 4.40524 3.44683C4.99434 3.57881 5.57795 3.65112 6.17193 3.67273C6.17193 2.84464 6.17193 2.02801 6.17193 1.17761C5.81967 1.24484 5.47817 1.30823 5.13793 1.3778C5.10504 1.38453 5.06728 1.42426 5.05322 1.45769C4.8087 2.03876 4.60662 2.63428 4.44762 3.26496ZM4.44114 9.87456C4.6404 10.4752 4.83905 11.0761 5.04034 11.6761C5.05293 11.7136 5.08011 11.7661 5.11077 11.7746C5.45723 11.8707 5.80927 11.9363 6.17073 11.9514C6.17073 11.1243 6.17073 10.3079 6.17073 9.45844C5.57607 9.5344 4.99189 9.60902 4.39734 9.68497C4.41577 9.76357 4.4265 9.80931 4.44114 9.87456ZM6.89257 10.5497C6.89257 11.0167 6.89257 11.4838 6.89257 11.9812C7.24576 11.915 7.58064 11.8552 7.91365 11.7863C7.95617 11.7775 8.00761 11.7282 8.02324 11.686C8.17423 11.2781 8.32438 10.8696 8.46233 10.4572C8.54339 10.2148 8.60199 9.96496 8.67993 9.68533C8.07552 9.60847 7.49184 9.53424 6.89257 9.45803C6.89257 9.83744 6.89257 10.1817 6.89257 10.5497Z" fill="#7D7D7D"/>
</g>
<defs>
<clipPath id="clip0_52_3282">
<rect width="12.4" height="12.4" fill="white" transform="translate(0.311035 0.355591)"/>
</clipPath>
</defs>
</svg>
