<svg width="12" height="12" viewBox="0 0 12 12" fill="none" xmlns="http://www.w3.org/2000/svg">
<g clip-path="url(#clip0_52_3243)">
<path d="M6.53252 11.8441C6.07999 11.8441 5.62745 11.8441 5.1598 11.8382C5.13207 11.8259 5.11995 11.8152 5.10678 11.8137C4.8262 11.7815 4.55269 11.7184 4.28102 11.6412C3.48632 11.4153 2.78425 11.0198 2.17033 10.4733C1.77142 10.1183 1.42345 9.7149 1.14242 9.25663C0.780041 8.6657 0.529496 8.03332 0.40593 7.34994C0.386127 7.24042 0.395649 7.12227 0.33252 7.02184C0.33252 6.63389 0.33252 6.24594 0.333766 5.83939C0.360095 5.56883 0.396863 5.3187 0.453756 5.07182C0.604785 4.41645 0.868428 3.8082 1.24103 3.25003C1.52426 2.82575 1.86852 2.45331 2.2558 2.11976C2.76062 1.68497 3.3265 1.35803 3.95125 1.12911C4.38297 0.970919 4.83004 0.882381 5.28391 0.821838C5.69339 0.821838 6.10286 0.821838 6.52764 0.827619C6.58598 0.871344 6.63941 0.850218 6.68764 0.85875C7.34329 0.974758 7.96862 1.17439 8.55166 1.50413C9.17317 1.85562 9.70257 2.31057 10.1531 2.8627C10.6541 3.47662 10.9978 4.16789 11.1981 4.93298C11.2778 5.23737 11.3265 5.5465 11.3547 5.85934C11.3547 6.17553 11.3547 6.49172 11.354 6.82661C11.3409 6.95857 11.3346 7.07289 11.315 7.18489C11.2305 7.66854 11.0992 8.13765 10.8996 8.58866C10.6673 9.11354 10.361 9.59009 9.97755 10.0133C9.63867 10.3874 9.26205 10.7208 8.83249 10.9939C8.22437 11.3804 7.5706 11.6419 6.86185 11.7715C6.75195 11.7915 6.63426 11.7845 6.53252 11.8441ZM8.31487 2.17462C8.06815 2.02055 7.8049 1.90121 7.53376 1.79714C7.10724 1.63345 6.66468 1.53002 6.21125 1.50366C5.86992 1.48382 5.5261 1.48655 5.18264 1.53664C4.54076 1.63024 3.94191 1.83585 3.38537 2.16623C2.87952 2.46652 2.44026 2.84375 2.07206 3.30424C1.77273 3.67858 1.52963 4.08512 1.35171 4.52981C1.18102 4.95643 1.06606 5.397 1.02657 5.85654C0.991224 6.26793 0.992466 6.67824 1.05866 7.0861C1.12822 7.51463 1.25529 7.92567 1.43348 8.32297C1.65404 8.81469 1.95374 9.2517 2.31767 9.64506C2.63028 9.98295 2.99095 10.2632 3.3855 10.501C3.79018 10.745 4.2246 10.917 4.67961 11.0354C5.1322 11.1532 5.59493 11.1839 6.06191 11.1698C6.39931 11.1596 6.72949 11.1047 7.05437 11.02C7.4682 10.9121 7.86272 10.754 8.23375 10.5388C8.74326 10.2432 9.19506 9.87805 9.56751 9.42091C9.85326 9.07018 10.0924 8.69005 10.276 8.2737C10.4975 7.77117 10.6368 7.24708 10.6734 6.70253C10.6996 6.31134 10.6896 5.91745 10.6189 5.52625C10.4998 4.8665 10.2675 4.25435 9.89851 3.69462C9.65124 3.31949 9.36441 2.97968 9.02061 2.68721C8.80199 2.50122 8.57453 2.32983 8.31487 2.17462Z" fill="#7D7D7D"/>
<path d="M4.37603 9.46424C3.96044 9.26554 3.59825 9.00497 3.29378 8.67114C2.9701 8.31624 2.71878 7.91448 2.57998 7.45062C2.52754 7.27537 2.62398 7.1052 2.79158 7.04919C2.97531 6.98779 3.15608 7.06243 3.22775 7.23773C3.33781 7.50691 3.46158 7.76738 3.64142 7.99879C4.06837 8.54819 4.61765 8.89908 5.30092 9.04247C6.05746 9.20124 6.75045 9.04132 7.38625 8.62272C7.88876 8.29187 8.23508 7.83109 8.44456 7.26684C8.51822 7.06844 8.69444 6.98524 8.89469 7.04843C9.07276 7.10462 9.16294 7.27817 9.10125 7.47924C8.98431 7.86037 8.78294 8.19854 8.53628 8.50842C8.22419 8.9005 7.83561 9.20163 7.38921 9.42653C7.01539 9.61485 6.61795 9.7224 6.20105 9.76681C5.56652 9.83441 4.96297 9.72731 4.37603 9.46424Z" fill="#7D7D7D"/>
<path d="M6.70203 4.63207C7.00726 4.12725 7.45135 3.87671 8.02991 3.91842C8.64189 3.96253 9.15573 4.39606 9.27512 5.03638C9.29098 5.12142 9.29797 5.20589 9.29652 5.29194C9.29326 5.48576 9.17122 5.62392 8.99611 5.63008C8.77064 5.638 8.61977 5.52309 8.61584 5.3149C8.60872 4.93786 8.34144 4.64075 7.96017 4.60544C7.70645 4.58194 7.39685 4.73341 7.27194 5.05599C7.23202 5.15908 7.23988 5.26693 7.21271 5.3702C7.16046 5.56882 7.02243 5.6588 6.80932 5.62885C6.68163 5.6109 6.53802 5.47365 6.54233 5.28937C6.54772 5.05868 6.59474 4.84358 6.70203 4.63207Z" fill="#7D7D7D"/>
<path d="M2.39289 5.1352C2.44064 4.89295 2.50599 4.66928 2.6523 4.47465C3.03565 3.96465 3.69803 3.7785 4.29157 4.01563C4.78866 4.21423 5.16806 4.72541 5.14185 5.3095C5.13463 5.47038 5.02534 5.61001 4.87984 5.62944C4.67731 5.65648 4.53092 5.56705 4.47879 5.39264C4.44892 5.2927 4.46267 5.18803 4.42663 5.08776C4.30887 4.76014 4.04099 4.596 3.76052 4.60446C3.36804 4.61629 3.09493 4.90644 3.0749 5.28099C3.0656 5.455 2.98922 5.56867 2.84242 5.61584C2.69427 5.66345 2.54461 5.62206 2.45512 5.50678C2.37044 5.39771 2.39386 5.26897 2.39289 5.1352Z" fill="#7D7D7D"/>
</g>
<defs>
<clipPath id="clip0_52_3243">
<rect width="11.0222" height="11.0222" fill="white" transform="translate(0.311035 0.800049)"/>
</clipPath>
</defs>
</svg>
