<svg width="12" height="12" viewBox="0 0 12 12" fill="none" xmlns="http://www.w3.org/2000/svg">
<g clip-path="url(#clip0_1_27773)">
<path d="M0.261963 4.93146C0.261963 4.59059 0.261963 4.24971 0.2703 3.89612C0.287512 3.86864 0.301041 3.85491 0.304546 3.83897C0.342089 3.66825 0.365781 3.49341 0.416796 3.32691C0.55631 2.87158 0.781954 2.46284 1.11175 2.11517C1.30582 1.91059 1.52041 1.73341 1.76506 1.59006C2.13137 1.37544 2.52683 1.25282 2.94612 1.21998C3.15965 1.20325 3.37685 1.22596 3.59194 1.23859C3.85042 1.25376 4.0923 1.33753 4.32487 1.44477C4.68382 1.61027 5.00181 1.83627 5.25678 2.13954C5.41961 2.33322 5.56447 2.54205 5.71642 2.7448C5.75303 2.79366 5.78584 2.84538 5.82857 2.90771C5.84628 2.88288 5.8559 2.87185 5.86281 2.85933C6.09077 2.44634 6.38679 2.09039 6.75524 1.79538C7.16475 1.4675 7.63099 1.26377 8.15219 1.22077C8.53884 1.18886 8.92629 1.21405 9.30381 1.33455C9.95878 1.54361 10.4656 1.94112 10.8461 2.50811C11.0848 2.86399 11.2371 3.25506 11.3219 3.67363C11.3451 3.78841 11.3656 3.90375 11.3873 4.01884C11.3873 4.28004 11.3873 4.54125 11.3788 4.81579C11.3612 4.90663 11.3576 4.9852 11.3424 5.06148C11.2445 5.55292 11.0582 6.01121 10.7869 6.43025C10.4246 6.98999 9.98859 7.48953 9.49738 7.94111C9.24616 8.17206 9.00111 8.40971 8.75126 8.64218C8.61002 8.77358 8.4668 8.90301 8.32078 9.02905C8.08413 9.23332 7.84356 9.43304 7.60633 9.63664C7.43058 9.78747 7.25876 9.94287 7.08293 10.0936C6.79429 10.3411 6.50424 10.5869 6.21392 10.8324C6.08805 10.9388 5.97668 11.0595 5.78037 11.0426C5.63741 11.0302 5.55844 10.9357 5.46762 10.8601C5.09858 10.5529 4.73765 10.2359 4.37332 9.92303C4.07121 9.66357 3.76682 9.40674 3.46657 9.14516C3.1492 8.86866 2.83042 8.59341 2.52189 8.30723C2.28523 8.08771 2.05489 7.85995 1.83742 7.62156C1.57158 7.33014 1.30827 7.03438 1.06878 6.72144C0.702033 6.24221 0.434831 5.71113 0.325362 5.10976C0.314213 5.04851 0.283563 4.99081 0.261963 4.93146Z" fill="white"/>
</g>
<defs>
<clipPath id="clip0_1_27773">
<rect width="11.1253" height="11.1253" fill="white" transform="translate(0.240356 0.542053)"/>
</clipPath>
</defs>
</svg>
