<svg width="12" height="12" viewBox="0 0 12 12" fill="none" xmlns="http://www.w3.org/2000/svg">
<g clip-path="url(#clip0_1_34549)">
<path d="M0.262085 4.93146C0.262085 4.59059 0.262085 4.24971 0.270422 3.89612C0.287634 3.86864 0.301163 3.85491 0.304668 3.83897C0.342211 3.66825 0.365903 3.49341 0.416918 3.32691C0.556432 2.87158 0.782076 2.46284 1.11187 2.11517C1.30594 1.91059 1.52053 1.73341 1.76518 1.59006C2.13149 1.37544 2.52695 1.25282 2.94624 1.21998C3.15977 1.20325 3.37698 1.22596 3.59207 1.23859C3.85054 1.25376 4.09243 1.33753 4.325 1.44477C4.68394 1.61027 5.00193 1.83627 5.2569 2.13954C5.41974 2.33322 5.56459 2.54205 5.71654 2.7448C5.75316 2.79366 5.78596 2.84538 5.8287 2.90771C5.8464 2.88288 5.85602 2.87185 5.86294 2.85933C6.09089 2.44634 6.38691 2.09039 6.75536 1.79538C7.16487 1.4675 7.63111 1.26377 8.15231 1.22077C8.53896 1.18886 8.92642 1.21405 9.30393 1.33455C9.9589 1.54361 10.4658 1.94112 10.8462 2.50811C11.0849 2.86399 11.2373 3.25506 11.322 3.67363C11.3452 3.78841 11.3657 3.90375 11.3874 4.01884C11.3874 4.28004 11.3874 4.54125 11.3789 4.81579C11.3614 4.90663 11.3577 4.9852 11.3425 5.06148C11.2446 5.55292 11.0583 6.01121 10.7871 6.43025C10.4247 6.98999 9.98871 7.48953 9.4975 7.94111C9.24628 8.17206 9.00123 8.40971 8.75138 8.64218C8.61015 8.77358 8.46692 8.90301 8.3209 9.02905C8.08425 9.23332 7.84368 9.43304 7.60645 9.63664C7.4307 9.78747 7.25888 9.94287 7.08305 10.0936C6.79441 10.3411 6.50436 10.5869 6.21405 10.8324C6.08817 10.9388 5.9768 11.0595 5.78049 11.0426C5.63753 11.0302 5.55856 10.9357 5.46774 10.8601C5.0987 10.5529 4.73777 10.2359 4.37344 9.92303C4.07133 9.66357 3.76694 9.40674 3.46669 9.14516C3.14932 8.86866 2.83054 8.59341 2.52201 8.30723C2.28535 8.08771 2.05502 7.85995 1.83754 7.62156C1.5717 7.33014 1.30839 7.03438 1.0689 6.72144C0.702155 6.24221 0.434953 5.71113 0.325484 5.10976C0.314335 5.04851 0.283685 4.99081 0.262085 4.93146Z" fill="url(#paint0_linear_1_34549)"/>
</g>
<defs>
<linearGradient id="paint0_linear_1_34549" x1="5.82474" y1="1.20813" x2="5.82474" y2="11.0442" gradientUnits="userSpaceOnUse">
<stop stop-color="#CD3DFB"/>
<stop offset="1" stop-color="#6875FD"/>
</linearGradient>
<clipPath id="clip0_1_34549">
<rect width="11.1253" height="11.1253" fill="white" transform="translate(0.240417 0.542053)"/>
</clipPath>
</defs>
</svg>
