<svg width="15" height="15" viewBox="0 0 15 15" fill="none" xmlns="http://www.w3.org/2000/svg">
<g clip-path="url(#clip0_52_3263)">
<path d="M4.74018 14.1603C4.70086 14.0483 4.73674 13.9488 4.78657 13.8508C4.88612 13.6551 4.97728 13.4548 5.08448 13.2635C5.14674 13.1523 5.13717 13.0814 5.04681 12.9854C4.25377 12.1427 3.84391 11.129 3.69126 9.99035C3.55194 8.9512 3.72329 7.96021 4.05698 6.98098C4.2922 6.2907 4.51498 5.59523 4.62429 4.87033C4.68173 4.48938 4.71754 4.10635 4.71789 3.72091C4.71936 2.12095 5.86475 0.772508 7.44397 0.513764C9.14148 0.235638 10.7918 1.37328 11.1326 3.05898C11.1617 3.20327 11.1931 3.35137 11.1906 3.49714C11.1716 4.59095 11.4063 5.6374 11.753 6.66647C11.9314 7.19621 12.1036 7.72865 12.1994 8.2823C12.2802 8.74889 12.2847 9.21542 12.2486 9.68668C12.2006 10.3122 12.0715 10.9165 11.8334 11.497C11.601 12.0633 11.2706 12.5668 10.8483 13.0088C10.7774 13.0831 10.7663 13.139 10.8152 13.2293C10.926 13.4342 11.0253 13.6453 11.1295 13.8538C11.1741 13.9431 11.2114 14.0338 11.1877 14.1487C9.04153 14.1603 6.89716 14.1603 4.74018 14.1603ZM7.20435 8.85654C7.10772 8.87515 7.01203 8.89752 6.91212 8.89538C6.73676 8.89163 6.65539 8.8154 6.65666 8.64155C6.65862 8.37383 6.73903 8.13007 6.89695 7.91406C6.95935 7.8287 7.03103 7.75013 7.10879 7.65601C6.07848 7.16621 5.46805 6.31458 5.02557 5.29219C5.00785 5.34194 4.99394 5.36914 4.98851 5.39793C4.84671 6.14963 4.53353 6.85407 4.38129 7.60269C4.36307 7.69229 4.29794 7.75603 4.27536 7.84545C4.13407 8.40489 4.06101 8.96698 4.11025 9.54723C4.14483 9.9546 4.20206 10.3551 4.3064 10.7495C4.31644 10.7874 4.33167 10.8261 4.35343 10.8585C4.43088 10.9736 4.52754 11.0799 4.49702 11.2363C4.48906 11.2771 4.50201 11.3159 4.51797 11.3537C4.76916 11.9494 5.13638 12.4632 5.60855 12.9036C5.66209 12.9535 5.72171 12.9643 5.79178 12.9686C6.01406 12.9822 6.2341 12.9473 6.45821 12.9598C6.8784 12.9832 7.30185 12.984 7.72176 12.9583C7.88101 12.9485 8.03196 12.95 8.1907 12.9588C8.61538 12.9822 9.04223 12.9642 9.46814 12.9691C9.55543 12.9701 9.63261 12.9016 9.71683 12.933C9.85716 12.9854 10.0008 12.9588 10.1429 12.967C10.1997 12.9702 10.2464 12.9533 10.2894 12.9144C10.7792 12.4708 11.1494 11.9433 11.4027 11.3334C11.4091 11.318 11.4079 11.2995 11.4098 11.2862C11.3813 11.2515 11.3223 11.2637 11.3181 11.2099C11.327 11.1387 11.4876 11.105 11.3861 11.0166C11.2877 10.9308 11.2803 11.0752 11.2277 11.1182C11.1535 11.0333 11.194 10.9563 11.2414 10.8951C11.3281 10.7832 11.4447 10.8066 11.5745 10.8656C11.8653 9.81732 11.9254 8.78231 11.5973 7.72451C11.4937 7.82547 11.3875 7.85427 11.2749 7.77168C11.2009 7.71738 11.1621 7.64143 11.1849 7.5487C11.2216 7.39975 11.3401 7.36622 11.4939 7.36405C11.2833 6.67464 11.0453 6.00688 10.8927 5.31057C10.4463 6.31726 9.83444 7.16677 8.81557 7.64922C8.82337 7.71471 8.87274 7.73785 8.90459 7.77294C9.12717 8.01821 9.2509 8.30393 9.25688 8.63637C9.26017 8.81967 9.18102 8.89735 8.9941 8.89389C8.61931 8.88695 8.31091 8.73355 8.0585 8.46014C8.02642 8.42538 8.00851 8.37294 7.93931 8.36381C7.75349 8.59404 7.52393 8.77341 7.20435 8.85654ZM10.2709 5.53676C10.374 5.33239 10.4623 5.12172 10.5337 4.90436C10.7382 4.28113 10.8175 3.65174 10.649 3.00373C10.3224 1.74849 9.08822 0.810787 7.69777 0.95154C6.91255 1.03103 6.26909 1.37332 5.77983 1.98912C5.25133 2.65432 5.07272 3.41504 5.21961 4.24958C5.39878 5.26756 5.85231 6.14073 6.63827 6.82096C7.47696 7.54682 8.43383 7.53786 9.27959 6.82165C9.69713 6.46807 10.0076 6.03361 10.2709 5.53676ZM9.20804 13.8282C9.66195 13.8282 10.1159 13.8282 10.5939 13.8282C10.5436 13.7201 10.5017 13.6459 10.4741 13.5669C10.4321 13.4469 10.3562 13.4123 10.2299 13.4133C9.44546 13.4192 8.66098 13.4162 7.87652 13.4162C7.13688 13.4161 6.39725 13.4158 5.65761 13.4166C5.6057 13.4167 5.54124 13.3974 5.50797 13.4515C5.43893 13.5638 5.37489 13.6797 5.33061 13.8281C6.6284 13.8281 7.90476 13.8281 9.20804 13.8282ZM8.27547 7.89217C8.2678 7.89483 8.25971 7.89676 8.25274 7.90067C8.251 7.90164 8.25167 7.90948 8.2532 7.91338C8.34273 8.14051 8.50369 8.29277 8.75546 8.38876C8.6574 8.14664 8.50971 7.98786 8.27547 7.89217ZM7.2665 8.18218C7.23082 8.24227 7.17894 8.29483 7.17574 8.37206C7.40508 8.3131 7.62215 8.0899 7.6478 7.88599C7.49221 7.9392 7.3766 8.04174 7.2665 8.18218ZM11.3784 7.55116C11.3274 7.5568 11.2892 7.57632 11.3133 7.6354C11.3275 7.67039 11.3636 7.67348 11.391 7.65153C11.4261 7.62334 11.4646 7.58844 11.3784 7.55116Z" fill="#7D7D7D"/>
<path d="M5.59271 6.80041C5.53636 6.92894 5.44487 6.9821 5.31947 6.95015C5.22011 6.92483 5.15846 6.85211 5.15276 6.74746C5.1471 6.64337 5.19908 6.56725 5.29473 6.5264C5.46229 6.45483 5.60204 6.57809 5.59271 6.80041Z" fill="#7D7D7D"/>
<path d="M7.03221 11.6853C7.22607 11.6737 7.32477 11.7525 7.32206 11.9048C7.31963 12.0416 7.20984 12.1396 7.07445 12.1234C6.9688 12.1108 6.90116 12.047 6.87969 11.9471C6.85358 11.8256 6.91172 11.7406 7.03221 11.6853Z" fill="#7D7D7D"/>
<path d="M5.4196 11.6795C5.5611 11.7246 5.62099 11.8158 5.5948 11.9503C5.57474 12.0532 5.50356 12.1141 5.39696 12.1218C5.2844 12.1299 5.2116 12.0717 5.16467 11.9727C5.10914 11.8555 5.22333 11.6474 5.4196 11.6795Z" fill="#7D7D7D"/>
<path d="M9.02951 10.266C8.96386 10.3855 8.87022 10.4266 8.75207 10.3904C8.6579 10.3615 8.6018 10.2893 8.5968 10.1901C8.59147 10.0846 8.64508 10.0082 8.7421 9.96874C8.91653 9.89786 9.05857 10.0388 9.02951 10.266Z" fill="#7D7D7D"/>
<path d="M11.1832 9.27421C11.2267 9.14871 11.3057 9.08481 11.4302 9.09544C11.5306 9.104 11.5962 9.16564 11.6203 9.26077C11.6443 9.35541 11.6166 9.43986 11.5354 9.49929C11.4641 9.55148 11.3856 9.55779 11.3069 9.51721C11.2134 9.46893 11.172 9.38987 11.1832 9.27421Z" fill="#7D7D7D"/>
<path d="M10.4185 6.91872C10.2923 6.78094 10.288 6.65197 10.4024 6.5627C10.4946 6.49079 10.5935 6.48615 10.6873 6.56042C10.7738 6.62896 10.7932 6.76225 10.7351 6.8539C10.6694 6.95768 10.5699 6.98063 10.4185 6.91872Z" fill="#7D7D7D"/>
<path d="M4.71371 9.42439C4.6413 9.53107 4.54954 9.56617 4.43896 9.52693C4.34588 9.49389 4.2942 9.41883 4.29229 9.32081C4.29037 9.22219 4.34211 9.15015 4.43305 9.11069C4.51518 9.07505 4.59294 9.09184 4.65976 9.14689C4.74757 9.21924 4.75806 9.31232 4.71371 9.42439Z" fill="#7D7D7D"/>
<path d="M10.6837 8.28284C10.7819 8.37839 10.7933 8.48077 10.7259 8.58291C10.6712 8.66599 10.5875 8.69414 10.4891 8.65848C10.3519 8.60877 10.2898 8.49182 10.3385 8.37455C10.395 8.2384 10.5129 8.20394 10.6837 8.28284ZM10.6169 8.42438C10.5954 8.36803 10.5469 8.33732 10.5019 8.37376C10.4314 8.43082 10.4563 8.51463 10.4666 8.59538C10.5641 8.58096 10.614 8.53413 10.6169 8.42438Z" fill="#7D7D7D"/>
<path d="M10.6821 10.0064C10.7704 10.1056 10.7792 10.2096 10.7187 10.3105C10.6737 10.3857 10.5957 10.4128 10.508 10.3872C10.4177 10.3608 10.3419 10.314 10.3238 10.2131C10.3081 10.1262 10.3428 10.0537 10.4115 10.0016C10.4966 9.93706 10.5858 9.94283 10.6821 10.0064ZM10.4719 10.0933C10.4127 10.1608 10.4246 10.2523 10.4834 10.2815C10.5814 10.3301 10.6339 10.2267 10.6979 10.171C10.6112 10.072 10.6112 10.072 10.4719 10.0933Z" fill="#7D7D7D"/>
<path d="M5.50204 8.5868C5.49927 8.55311 5.49995 8.52621 5.50409 8.49985C5.51701 8.41754 5.49327 8.35359 5.40666 8.33506C5.31529 8.31552 5.26114 8.35921 5.2444 8.45127C5.24064 8.47199 5.22978 8.49141 5.21971 8.51796C5.13917 8.49291 5.15042 8.44059 5.16857 8.38902C5.20378 8.28897 5.27582 8.2329 5.38225 8.23669C5.47999 8.24017 5.56089 8.28643 5.58254 8.38608C5.59939 8.46365 5.61959 8.55682 5.50204 8.5868Z" fill="#7D7D7D"/>
<path d="M6.11639 7.53295C6.13963 7.72048 6.1708 7.73667 6.39551 7.68799C6.38142 7.78084 6.33905 7.81606 6.24086 7.81657C6.12862 7.81716 6.02953 7.73454 6.01985 7.62097C6.01177 7.52628 6.04003 7.44705 6.14891 7.42212C6.17234 7.47209 6.12509 7.49106 6.11639 7.53295Z" fill="#7D7D7D"/>
<path d="M8.11396 9.27849C8.08342 9.20082 8.00605 9.17839 7.94311 9.10577C8.06072 9.11316 8.13074 9.14747 8.15879 9.24028C8.18643 9.33171 8.18152 9.42197 8.10042 9.48576C8.02406 9.54582 7.9405 9.56015 7.8418 9.48114C7.95675 9.43489 8.09669 9.43683 8.11396 9.27849Z" fill="#7D7D7D"/>
<path d="M8.76071 11.7869C8.7118 11.8166 8.67164 11.843 8.6167 11.8792C8.63193 11.7487 8.69659 11.6833 8.80803 11.6811C8.9103 11.6791 8.99834 11.7152 9.01665 11.8477C8.92225 11.8453 8.86119 11.7498 8.76071 11.7869Z" fill="#7D7D7D"/>
<path d="M7.82109 12.7777C7.81521 12.8076 7.81729 12.8367 7.78892 12.8379C7.7642 12.839 7.75482 12.8141 7.7472 12.7936C7.71962 12.7194 7.7672 12.6382 7.87362 12.5902C7.86023 12.6554 7.8137 12.7054 7.82109 12.7777Z" fill="#7D7D7D"/>
<path d="M6.57974 1.77533C7.64557 1.06435 8.99772 1.23425 9.78439 2.19891C10.3722 2.91976 10.5077 3.7437 10.159 4.60826C9.82559 5.43504 9.19256 5.93276 8.30755 6.06836C7.03194 6.2638 5.83666 5.41798 5.61924 4.15346C5.45185 3.17993 5.78613 2.38383 6.57974 1.77533ZM7.00165 5.38768C7.42001 5.62173 7.8663 5.70894 8.33499 5.60172C9.15822 5.41341 9.65686 4.89406 9.84885 4.07395C9.87406 3.96625 9.83269 3.93189 9.73239 3.91484C9.01643 3.79307 8.46737 3.419 8.07878 2.80728C8.03893 2.74455 8.00342 2.67908 7.96651 2.61592C7.92401 2.63495 7.91666 2.6673 7.90162 2.69369C7.51706 3.3685 6.94757 3.7838 6.17884 3.91564C6.06544 3.93509 6.0461 3.98506 6.06962 4.09215C6.19254 4.65186 6.49643 5.07971 7.00165 5.38768ZM9.8149 3.46403C9.87712 3.43964 9.85293 3.39348 9.84337 3.35101C9.66775 2.57116 9.1882 2.07781 8.42603 1.85527C8.36247 1.83671 8.29192 1.80167 8.22073 1.83656C8.24311 2.37914 8.74888 3.2815 9.8149 3.46403ZM7.62164 1.82396C6.79021 2.01054 6.26833 2.51156 6.07209 3.34573C6.05254 3.4288 6.04908 3.47652 6.16058 3.45761C6.90654 3.33109 7.58613 2.65039 7.69593 1.91722C7.70339 1.86737 7.70805 1.82615 7.62164 1.82396Z" fill="#7D7D7D"/>
<path d="M7.22358 4.33967C7.10376 4.4005 7.00399 4.38367 6.92452 4.29021C6.86028 4.21467 6.8547 4.1276 6.90386 4.04C6.9532 3.95208 7.03085 3.91711 7.129 3.9274C7.21796 3.93673 7.28121 3.98875 7.30859 4.06946C7.34281 4.17032 7.32375 4.26441 7.22358 4.33967Z" fill="#7D7D7D"/>
<path d="M8.69583 3.96542C8.85635 3.90031 8.97944 3.94002 9.02992 4.06422C9.07696 4.17997 9.01642 4.32032 8.90102 4.36302C8.78452 4.40614 8.64849 4.34223 8.60793 4.2217C8.57399 4.12086 8.60788 4.03833 8.69583 3.96542Z" fill="#7D7D7D"/>
</g>
<defs>
<clipPath id="clip0_52_3263">
<rect width="13.7778" height="13.7778" fill="white" transform="translate(0.93335 0.35553)"/>
</clipPath>
</defs>
</svg>
