<svg width="12" height="12" viewBox="0 0 12 12" fill="none" xmlns="http://www.w3.org/2000/svg">
<path fill-rule="evenodd" clip-rule="evenodd" d="M6.26493 0.838221C7.20997 1.20968 8.05445 1.99637 8.50668 2.92631C8.78594 3.50044 8.97954 3.82453 8.97954 4.83772C8.97954 5.90674 8.79591 6.14543 8.46282 6.76578L8.08273 7.47396L9.65829 9.03831C11.2362 10.6049 11.4675 10.9938 11.0699 11.4115C10.7509 11.7466 10.3342 11.5823 9.65747 10.8544C9.28462 10.4532 8.57103 9.74218 8.07166 9.27413L7.16392 8.42327L6.50047 8.72943C5.09501 9.3779 3.18198 9.03988 2.1025 7.9522C1.27127 7.11456 0.946516 6.35958 0.877247 5.10325C0.785981 3.44532 1.27059 2.29908 2.44475 1.39656C3.58666 0.518864 4.94677 0.320073 6.26493 0.838221ZM3.60046 2.20005C1.94566 3.06626 1.55696 5.31037 2.80325 6.80151C4.14929 8.41208 6.75664 7.91489 7.48595 5.90875C8.02261 4.43253 7.46983 2.88512 6.16109 2.20005C5.23587 1.71563 4.52569 1.71563 3.60046 2.20005Z" fill="#8997A4"/>
</svg>
